<svg version="1.1" xmlns="http://www.w3.org/2000/svg" viewBox="0 0 997 511" width="1994" height="1022">
  <!-- svg-source:excalidraw -->
  
  <defs>
    <style class="style-fonts">
      @font-face {
        font-family: "Virgil";
        src: url("https://excalidraw.com/Virgil.woff2");
      }
      @font-face {
        font-family: "Cascadia";
        src: url("https://excalidraw.com/Cascadia.woff2");
      }
    </style>
    
  </defs>
  <rect x="0" y="0" width="997" height="511" fill="#ffffff"></rect><g stroke-linecap="round" transform="translate(10 406) rotate(0 74 19)"><path d="M0 0 L148 0 L148 38 L0 38" stroke="none" stroke-width="0" fill="#b2f2bb"></path><path d="M0 0 C47.07 0, 94.14 0, 148 0 M0 0 C55.74 0, 111.47 0, 148 0 M148 0 C148 12.98, 148 25.97, 148 38 M148 0 C148 12.27, 148 24.54, 148 38 M148 38 C106.67 38, 65.33 38, 0 38 M148 38 C116.89 38, 85.79 38, 0 38 M0 38 C0 23.73, 0 9.46, 0 0 M0 38 C0 24.69, 0 11.38, 0 0" stroke="#2f9e44" stroke-width="2" fill="none"></path></g><g stroke-linecap="round" transform="translate(226 190) rotate(0 74 127)"><path d="M0 0 L148 0 L148 254 L0 254" stroke="none" stroke-width="0" fill="#ffc9c9"></path><path d="M0 0 C51.48 0, 102.95 0, 148 0 M0 0 C47.35 0, 94.71 0, 148 0 M148 0 C148 88.49, 148 176.98, 148 254 M148 0 C148 89.88, 148 179.76, 148 254 M148 254 C95.09 254, 42.17 254, 0 254 M148 254 C107.87 254, 67.74 254, 0 254 M0 254 C0 196.32, 0 138.65, 0 0 M0 254 C0 174.21, 0 94.43, 0 0" stroke="#e03131" stroke-width="2" fill="none"></path></g><g stroke-linecap="round" transform="translate(542.5 406) rotate(0 74 19)"><path d="M0 0 L148 0 L148 38 L0 38" stroke="none" stroke-width="0" fill="#b2f2bb"></path><path d="M0 0 C46.75 0, 93.5 0, 148 0 M0 0 C38.68 0, 77.37 0, 148 0 M148 0 C148 13.25, 148 26.51, 148 38 M148 0 C148 13.64, 148 27.29, 148 38 M148 38 C97.72 38, 47.43 38, 0 38 M148 38 C91.24 38, 34.48 38, 0 38 M0 38 C0 25.92, 0 13.85, 0 0 M0 38 C0 23.08, 0 8.15, 0 0" stroke="#2f9e44" stroke-width="2" fill="none"></path></g><g stroke-linecap="round" transform="translate(691 312) rotate(0 74 66)"><path d="M0 0 L148 0 L148 132 L0 132" stroke="none" stroke-width="0" fill="#a5d8ff"></path><path d="M0 0 C30.14 0, 60.28 0, 148 0 M0 0 C33.02 0, 66.04 0, 148 0 M148 0 C148 33.96, 148 67.91, 148 132 M148 0 C148 50.15, 148 100.29, 148 132 M148 132 C101.43 132, 54.86 132, 0 132 M148 132 C97.67 132, 47.34 132, 0 132 M0 132 C0 101.84, 0 71.68, 0 0 M0 132 C0 81.49, 0 30.99, 0 0" stroke="#1971c2" stroke-width="2" fill="none"></path></g><g stroke-linecap="round" transform="translate(839 190) rotate(0 74 127)"><path d="M0 0 L148 0 L148 254 L0 254" stroke="none" stroke-width="0" fill="#ffc9c9"></path><path d="M0 0 C50.83 0, 101.67 0, 148 0 M0 0 C32.61 0, 65.23 0, 148 0 M148 0 C148 89.04, 148 178.08, 148 254 M148 0 C148 68.02, 148 136.04, 148 254 M148 254 C93.03 254, 38.06 254, 0 254 M148 254 C111.3 254, 74.61 254, 0 254 M0 254 C0 184.37, 0 114.74, 0 0 M0 254 C0 189.26, 0 124.52, 0 0" stroke="#e03131" stroke-width="2" fill="none"></path></g><g stroke-linecap="round"><g transform="translate(463 10) rotate(0 0 217)"><path d="M0 0 C0 160.09, 0 320.18, 0 434 M0 0 C0 124.97, 0 249.94, 0 434" stroke="#6741d9" stroke-width="2" fill="none"></path></g></g><mask></mask><g transform="translate(39 449) rotate(0 45.150001525878906 25)"><text x="45.150001525878906" y="0" font-family="Virgil, Segoe UI Emoji" font-size="20px" fill="#6741d9" text-anchor="middle" style="white-space: pre;" direction="ltr" dominant-baseline="text-before-edge">Plaintext</text><text x="45.150001525878906" y="25" font-family="Virgil, Segoe UI Emoji" font-size="20px" fill="#6741d9" text-anchor="middle" style="white-space: pre;" direction="ltr" dominant-baseline="text-before-edge">logs</text></g><g transform="translate(571.8499984741211 448) rotate(0 45.150001525878906 25)"><text x="45.150001525878906" y="0" font-family="Virgil, Segoe UI Emoji" font-size="20px" fill="#6741d9" text-anchor="middle" style="white-space: pre;" direction="ltr" dominant-baseline="text-before-edge">Plaintext</text><text x="45.150001525878906" y="25" font-family="Virgil, Segoe UI Emoji" font-size="20px" fill="#6741d9" text-anchor="middle" style="white-space: pre;" direction="ltr" dominant-baseline="text-before-edge">logs</text></g><g transform="translate(254.6500015258789 448) rotate(0 45.349998474121094 25)"><text x="45.349998474121094" y="0" font-family="Virgil, Segoe UI Emoji" font-size="20px" fill="#6741d9" text-anchor="middle" style="white-space: pre;" direction="ltr" dominant-baseline="text-before-edge">Terabyte</text><text x="45.349998474121094" y="25" font-family="Virgil, Segoe UI Emoji" font-size="20px" fill="#6741d9" text-anchor="middle" style="white-space: pre;" direction="ltr" dominant-baseline="text-before-edge">scale</text></g><g transform="translate(870.6500015258789 451) rotate(0 45.349998474121094 25)"><text x="45.349998474121094" y="0" font-family="Virgil, Segoe UI Emoji" font-size="20px" fill="#6741d9" text-anchor="middle" style="white-space: pre;" direction="ltr" dominant-baseline="text-before-edge">Terabyte</text><text x="45.349998474121094" y="25" font-family="Virgil, Segoe UI Emoji" font-size="20px" fill="#6741d9" text-anchor="middle" style="white-space: pre;" direction="ltr" dominant-baseline="text-before-edge">scale</text></g><g transform="translate(742.8999996185303 449) rotate(0 23.100000381469727 12.5)"><text x="23.100000381469727" y="0" font-family="Virgil, Segoe UI Emoji" font-size="20px" fill="#6741d9" text-anchor="middle" style="white-space: pre;" direction="ltr" dominant-baseline="text-before-edge">Bark</text></g></svg>